<svg width="24" height="27" viewBox="0 0 24 27" fill="none" xmlns="http://www.w3.org/2000/svg">
<path d="M22.8857 19.2173C21.9061 18.1345 19.9982 16.536 19.9982 11.2251C19.9982 7.25478 17.2139 4.05791 13.3982 3.23291V2.1501C13.3982 1.27353 12.6764 0.500096 11.7998 0.500096C10.8717 0.500096 10.1498 1.27353 10.1498 2.1501V3.23291C6.33418 4.05791 3.5498 7.25478 3.5498 11.2251C3.5498 16.536 1.64199 18.1345 0.662304 19.2173C0.352929 19.5267 0.198241 19.9392 0.249804 20.3001C0.249804 21.1767 0.868554 21.9501 1.8998 21.9501H21.6482C22.6795 21.9501 23.2982 21.1767 23.3498 20.3001C23.3498 19.9392 23.1951 19.5267 22.8857 19.2173ZM3.70449 19.4751C4.7873 18.0829 5.97324 15.6595 6.0248 11.2767C6.0248 11.2767 6.0248 11.2767 6.0248 11.2251C6.0248 8.07978 8.60293 5.4501 11.7998 5.4501C14.9451 5.4501 17.5748 8.07978 17.5748 11.2251C17.5748 11.2767 17.5232 11.2767 17.5232 11.2767C17.5748 15.6595 18.7607 18.0829 19.8436 19.4751H3.70449ZM11.7998 26.9001C13.6045 26.9001 15.0482 25.4563 15.0482 23.6001H8.4998C8.4998 25.4563 9.94355 26.9001 11.7998 26.9001Z" fill="#DEDEDE"/>
</svg>
