<svg width="26" height="27" viewBox="0 0 26 27" fill="none" xmlns="http://www.w3.org/2000/svg">
<path d="M13 0.912596C5.93594 0.912596 0.212499 6.6876 0.212499 13.7001C0.212499 20.7642 5.93594 26.4876 13 26.4876C20.0125 26.4876 25.7875 20.7642 25.7875 13.7001C25.7875 6.6876 20.0125 0.912596 13 0.912596ZM13 24.0126C7.27656 24.0126 2.6875 19.4235 2.6875 13.7001C2.6875 8.02822 7.27656 3.3876 13 3.3876C18.6719 3.3876 23.3125 8.02822 23.3125 13.7001C23.3125 19.4235 18.6719 24.0126 13 24.0126ZM18.5172 10.8642C18.5172 8.28603 15.7844 6.2751 13.2578 6.2751C10.8344 6.2751 9.2875 7.30635 8.10156 9.11103C7.89531 9.36885 7.94687 9.72978 8.20469 9.93603L9.64844 11.0188C9.90625 11.2251 10.3187 11.1735 10.525 10.9157C11.2984 9.93603 11.8656 9.36885 13.0516 9.36885C13.9797 9.36885 15.1141 9.93603 15.1141 10.8642C15.1141 11.5345 14.5469 11.8438 13.6188 12.3595C12.5875 12.9782 11.1953 13.7001 11.1953 15.5563V15.9688C11.1953 16.3298 11.4531 16.5876 11.8141 16.5876L14.1344 16.5876C14.4953 16.5876 14.7531 16.3298 14.7531 15.9688V15.6595C14.7531 14.3704 18.5172 14.3188 18.5172 10.8642ZM15.1656 19.4751C15.1656 18.2892 14.1859 17.3095 13 17.3095C11.7625 17.3095 10.8344 18.2892 10.8344 19.4751C10.8344 20.7126 11.7625 21.6407 13 21.6407C14.1859 21.6407 15.1656 20.7126 15.1656 19.4751Z" fill="#DEDEDE"/>
</svg>
